PathFileType	4	(x/y/z)	S06_M20_T25
DataRate	CameraRate	NumFrames	NumMarkers	Units	OrigDataRate	OrigDataStartFrame	OrigNumFrames
240	240	5	51	mm	240	308	492
Frame#	Time	Sternum			R.Acromium			L.Acromium			Top.Head			R.ASIS			L.ASIS			R.PSIS			L.PSIS			R.Great.Tro			L.Great.Tro			R.Iliac.Crest			L.Iliac.Crest			V.Sacral			R.Thigh.Upper.Post			R.Thigh.Lower.Ant			R.Thigh.Lower.Post			R.Thigh.Upper.Ant			R.Knee.Lat			R.Knee.Med			R.Shank.Upper.Post			R.Shank.Lower.Ant			R.Shank.Lower.Post			R.Shank.Upper.Ant			R.Ankle.Lat			R.Ankle.Med			R.Heel.Upper			R.Heel.Med			R.Heel.Lat			R.Toe.Lat			R.Toe.Med			R.Toe.Tip			L.Thigh.Upper.Post			L.Thigh.Lower.Ant			L.Thigh.Lower.Post			L.Thigh.Upper.Ant			L.Knee.Lat			L.Knee.Med			L.Shank.Upper.Post			L.Shank.Lower.Ant			L.Shank.Lower.Post			L.Shank.Upper.Ant			L.Ankle.Lat			L.Ankle.Med			L.Heel.Upper			L.Heel.Med			L.Heel.Lat			L.Toe.Lat			L.Toe.Med			L.Toe.Tip			Cervical.Spine			Back			
		X1	Y1	Z1	X2	Y2	Z2	X3	Y3	Z3	X4	Y4	Z4	X5	Y5	Z5	X6	Y6	Z6	X7	Y7	Z7	X8	Y8	Z8	X9	Y9	Z9	X10	Y10	Z10	X11	Y11	Z11	X12	Y12	Z12	X13	Y13	Z13	X14	Y14	Z14	X15	Y15	Z15	X16	Y16	Z16	X17	Y17	Z17	X18	Y18	Z18	X19	Y19	Z19	X20	Y20	Z20	X21	Y21	Z21	X22	Y22	Z22	X23	Y23	Z23	X24	Y24	Z24	X25	Y25	Z25	X26	Y26	Z26	X27	Y27	Z27	X28	Y28	Z28	X29	Y29	Z29	X30	Y30	Z30	X31	Y31	Z31	X32	Y32	Z32	X33	Y33	Z33	X34	Y34	Z34	X35	Y35	Z35	X36	Y36	Z36	X37	Y37	Z37	X38	Y38	Z38	X39	Y39	Z39	X40	Y40	Z40	X41	Y41	Z41	X42	Y42	Z42	X43	Y43	Z43	X44	Y44	Z44	X45	Y45	Z45	X46	Y46	Z46	X47	Y47	Z47	X48	Y48	Z48	X49	Y49	Z49	X50	Y50	Z50	X51	Y51	Z51	

308	1.2792	91.782	1261.5	302.22	-30.931	1466.3	474.18	-60.069	1463.5	123.74	27.053	1778.7	293.92	50.599	1026.9	438.19	70.575	1020.3	185.47	-144.11	1042.5	332.27	-138.61	1039.1	252.64	-27.718	958.74	485.4	-16.722	938.55	129.49	-36.121	1102.6	462.29	-4.8477	1088.7	142.02	-153.7	1006.1	297.5	-112.31	726.39	463.06	-83.4	633.04	430.09	-150.11	649.03	437.83	-41.682	711.55	452.2	-177.53	536.85	418.49	-156.69	543.27	292.21	-328.99	357.63	400.16	-307.07	273.13	375.44	-369.3	294.43	379.4	-267.67	336.38	395.77	-407.57	164.94	345.95	-385.52	168.97	263.21	-480.99	154.23	294.06	-484.97	123.93	262.5	-487.8	121.63	327.57	-333	39.844	370.17	-304.68	43.104	248.96	-241.82	41.077	296.52	129.18	710.15	158.17	198.78	656.86	224.98	141.76	622.6	181.83	177.25	746.17	198.74	160.86	534.18	201.95	185.82	554.76	320.81	197.79	304.83	222.09	280.47	271.36	219.42	220.99	237.23	241.48	254.56	336.53	206.73	324.46	121.76	239.26	329.62	154.8	325.93	284.43	51.717	293.24	305.29	36.406	328.79	305.69	29.541	267.07	455.47	118.57	216.36	462.12	154.37	328.43	509.36	201.93	266.84	-96.235	1517.8	302.89	-150.69	1241.3	303.97
309	1.2833	97.846	1261.7	302.26	-25.339	1466.5	473.88	-54.175	1463.4	123.41	32.509	1778.7	293.55	56.662	1026.9	438.32	77.186	1020.5	185.64	-137.72	1042.4	331.97	-132.14	1039	252.35	-21.798	958.68	485.33	-9.922	938.7	129.46	-30.132	1102.6	462.27	1.6889	1088.8	142.02	-147.33	1006.1	297.21	-106.39	726.33	463.29	-77.339	632.9	430.64	-144.07	648.88	438.11	-35.729	711.47	452.73	-171.49	536.74	418.96	-150.05	542.81	292.78	-324.68	358.99	400.59	-303.51	274.2	375.94	-365.59	296.15	379.78	-263.53	337.06	396.23	-405.04	167.01	346.45	-382.69	170.68	263.75	-478.23	157.49	294.47	-482.71	127.39	262.74	-485.67	124.85	327.83	-332.5	40.042	370.23	-304.18	43.345	249.04	-241.64	41.055	296.49	135.25	709.96	158.41	204.64	656.28	225.09	147.36	622.35	182.03	183.63	745.69	198.85	166.11	533.75	202.14	191.05	554.23	320.97	201.55	304.17	222.34	284.02	270.13	220.06	224.2	236.4	241.81	258.62	335.5	207.28	326.68	120.39	239.95	332.01	153.12	326.69	285.62	51.756	293.85	306.28	35.783	329.23	306.34	29.316	267.46	457.31	115.94	216.99	464.47	151	329.24	512.2	198.34	267.82	-90.573	1517.8	302.5	-144.63	1241.1	303.79
310	1.2875	103.94	1261.9	302.31	-19.747	1466.7	473.57	-48.243	1463.3	123.08	37.971	1778.9	293.17	62.74	1027	438.49	83.848	1020.8	185.85	-131.31	1042.4	331.62	-125.61	1038.9	252.02	-15.848	958.64	485.24	-3.0372	938.9	129.43	-24.139	1102.7	462.24	8.2971	1088.9	142.02	-140.91	1006	296.88	-100.38	726.28	463.52	-71.148	632.77	431.23	-137.91	648.73	438.41	-29.675	711.42	453.3	-165.29	536.62	419.46	-143.21	542.31	293.41	-320.22	360.38	401.03	-299.8	275.31	376.48	-361.72	297.92	380.17	-259.25	337.76	396.74	-402.34	169.11	346.97	-379.72	172.44	264.32	-475.28	160.87	294.9	-480.27	130.96	263	-483.38	128.18	328.1	-331.97	40.269	370.29	-303.63	43.613	249.13	-241.46	41.033	296.44	141.24	709.74	158.64	210.41	655.65	225.18	152.85	622.07	182.22	189.96	745.15	198.94	171.25	533.3	202.32	196.11	553.66	321.15	205.3	303.54	222.58	287.56	268.96	220.66	227.42	235.61	242.14	262.66	334.52	207.8	328.92	119.08	240.6	334.43	151.52	327.41	286.83	51.946	294.43	307.23	35.286	329.64	306.98	29.224	267.83	459.15	113.32	217.58	466.84	147.62	330.01	515.08	194.7	268.75	-84.894	1517.7	302.09	-138.54	1241	303.61
311	1.2917	110.07	1262.2	302.38	-14.156	1467	473.27	-42.273	1463.2	122.74	43.438	1779.1	292.79	68.83	1027.1	438.67	90.552	1021.1	186.09	-124.88	1042.4	331.25	-119.05	1038.9	251.67	-9.8697	958.62	485.13	3.9219	939.14	129.39	-18.143	1102.7	462.22	14.972	1089	142.02	-134.45	1006	296.51	-94.268	726.22	463.76	-64.824	632.63	431.87	-131.63	648.56	438.73	-23.517	711.38	453.9	-158.92	536.49	420.01	-136.17	541.74	294.11	-315.6	361.8	401.49	-295.96	276.45	377.07	-357.7	299.72	380.57	-254.81	338.48	397.29	-399.48	171.26	347.51	-376.6	174.23	264.92	-472.14	164.34	295.36	-477.65	134.66	263.29	-480.92	131.64	328.38	-331.42	40.532	370.35	-303.03	43.914	249.22	-241.27	41.01	296.4	147.17	709.49	158.84	216.08	654.96	225.27	158.23	621.76	182.39	196.23	744.57	199.02	176.28	532.86	202.49	201	553.07	321.37	209.03	302.94	222.82	291.1	267.84	221.23	230.66	234.87	242.44	266.66	333.58	208.31	331.19	117.85	241.22	336.89	149.99	328.09	288.06	52.272	294.97	308.17	34.911	330.02	307.6	29.256	268.16	460.97	110.7	218.12	469.23	144.24	330.73	518	191.02	269.61	-79.198	1517.8	301.68	-132.41	1240.9	303.41
312	1.2958	116.22	1262.5	302.48	-8.5673	1467.3	472.97	-36.265	1463.1	122.4	48.908	1779.3	292.39	74.929	1027.2	438.89	97.292	1021.4	186.35	-118.44	1042.4	330.84	-112.45	1038.9	251.28	-3.8626	958.63	485.01	10.944	939.42	129.33	-12.143	1102.8	462.19	21.707	1089.2	142.03	-127.96	1006	296.11	-88.057	726.17	464	-58.364	632.5	432.57	-125.21	648.37	439.07	-17.253	711.36	454.53	-152.38	536.34	420.61	-128.92	541.12	294.88	-310.81	363.25	401.97	-291.97	277.61	377.69	-353.5	301.56	380.98	-250.23	339.21	397.88	-396.45	173.45	348.09	-373.33	176.06	265.56	-468.8	167.93	295.86	-474.85	138.49	263.6	-478.29	135.21	328.69	-330.83	40.834	370.42	-302.4	44.253	249.32	-241.06	40.986	296.34	153.03	709.23	159.02	221.65	654.24	225.34	163.52	621.42	182.54	202.44	743.96	199.09	181.23	532.42	202.65	205.73	552.47	321.6	212.76	302.38	223.05	294.63	266.78	221.78	233.91	234.18	242.74	270.64	332.68	208.78	333.48	116.69	241.8	339.38	148.53	328.73	289.31	52.718	295.48	309.1	34.649	330.36	308.23	29.402	268.47	462.8	108.1	218.61	471.65	140.85	331.39	520.97	187.3	270.42	-73.487	1517.8	301.25	-126.25	1240.9	303.2
